<svg width="421" height="277" viewBox="0 0 421 277" fill="none" xmlns="http://www.w3.org/2000/svg">
    <g opacity="0.6">
    <rect x="210.51" y="264.168" width="14.0331" height="14.0663" fill="#0D464A"/>
    <rect x="210.51" y="236.036" width="14.0331" height="14.0663" fill="#0D464A"/>
    <rect x="210.51" y="207.904" width="14.0331" height="14.0663" fill="#0D464A"/>
    <rect x="238.576" y="264.168" width="14.0331" height="14.0663" fill="#0D464A"/>
    <rect x="238.576" y="236.036" width="14.0331" height="14.0663" fill="#0D464A"/>
    <rect x="238.576" y="207.904" width="14.0331" height="14.0663" fill="#0D464A"/>
    <rect x="224.541" y="250.104" width="14.0331" height="14.0663" fill="#0D464A"/>
    <rect x="224.541" y="221.97" width="14.0331" height="14.0663" fill="#0D464A"/>
    <rect x="266.641" y="264.168" width="14.0331" height="14.0663" fill="#0D464A"/>
    <rect x="266.641" y="236.036" width="14.0331" height="14.0663" fill="#0D464A"/>
    <rect x="266.641" y="207.904" width="14.0331" height="14.0663" fill="#0D464A"/>
    <rect x="252.605" y="250.104" width="14.0331" height="14.0663" fill="#0D464A"/>
    <rect x="252.605" y="221.97" width="14.0331" height="14.0663" fill="#0D464A"/>
    </g>
    <g opacity="0.6">
    <rect x="70.1836" y="193.84" width="14.0331" height="14.0659" fill="#0D464A"/>
    <rect x="70.1836" y="165.703" width="14.0331" height="14.0659" fill="#0D464A"/>
    <rect x="70.1836" y="137.575" width="14.0331" height="14.0658" fill="#0D464A"/>
    <rect x="98.25" y="193.84" width="14.0331" height="14.0659" fill="#0D464A"/>
    <rect x="98.25" y="165.703" width="14.0331" height="14.0659" fill="#0D464A"/>
    <rect x="98.25" y="137.575" width="14.0331" height="14.0658" fill="#0D464A"/>
    <rect x="84.2148" y="179.774" width="14.0331" height="14.0658" fill="#0D464A"/>
    <rect x="84.2148" y="151.643" width="14.0331" height="14.0658" fill="#0D464A"/>
    <rect x="126.314" y="193.84" width="14.0331" height="14.0659" fill="#0D464A"/>
    <rect x="126.314" y="165.703" width="14.0331" height="14.0659" fill="#0D464A"/>
    <rect x="126.314" y="137.575" width="14.0331" height="14.0658" fill="#0D464A"/>
    <rect x="112.279" y="179.774" width="14.0331" height="14.0658" fill="#0D464A"/>
    <rect x="112.279" y="151.643" width="14.0331" height="14.0658" fill="#0D464A"/>
    </g>
    <rect x="280.674" y="137.575" width="70.1635" height="70.3296" fill="#0D464A" fill-opacity="0.6"/>
    <rect x="210.51" y="67.2451" width="70.1635" height="70.3458" fill="#0D464A" fill-opacity="0.6"/>
    <rect x="280.674" y="-3.08398" width="70.1635" height="70.3296" fill="#0D464A"/>
    <rect x="140.346" y="67.2451" width="70.1635" height="70.3296" fill="#0D464A"/>
    <rect x="350.838" y="137.575" width="70.1635" height="70.3296" fill="#0D464A"/>
    <rect x="0.0195312" y="67.2451" width="70.1635" height="70.3296" fill="#0D464A"/>
    <rect x="210.51" y="-3.08398" width="70.1635" height="70.3296" fill="#0D464A"/>
    <rect x="140.346" y="207.904" width="70.1635" height="70.3296" fill="#0D464A"/>
    <rect x="350.838" y="-3.08398" width="14.032" height="70.3296" fill="#86D0AF"/>
    <rect x="378.9" y="-3.08398" width="14.032" height="70.3296" fill="#86D0AF"/>
    <rect x="406.971" y="-3.08398" width="14.032" height="70.3296" fill="#86D0AF"/>
    <rect x="280.674" y="67.2451" width="14.0324" height="70.3296" fill="#86D0AF"/>
    <rect x="308.738" y="67.2451" width="14.0324" height="70.3296" fill="#86D0AF"/>
    <rect x="336.805" y="67.2451" width="14.0324" height="70.3296" fill="#86D0AF"/>
    </svg>
    